<svg id="Layer_1" data-name="Layer 1" xmlns="http://www.w3.org/2000/svg" viewBox="0 0 226.77 168.57"><defs><style>.cls-1{fill:#fff;stroke:#fff;stroke-linecap:round;stroke-linejoin:round;stroke-width:10px;}</style></defs><path class="cls-1" d="M221.77,84.29l-85,.42v-.84l85,.42L103.43,5V46.74H12.55A7.58,7.58,0,0,0,5,54.29v58.82a7.58,7.58,0,0,0,7.55,7.55h90.88v42.91Z"/><path d="M72.11,61.17v48H61.23V71.81H48.43l1.76-10.64Z"/><path d="M93.47,61.17v48H82.59V71.81H79.31l1.76-10.64Z"/><path d="M115.71,61.17V71.81h-4.08a8.22,8.22,0,0,1,2.72,6.48v30.88H103.47V71.81h-3.6l1.76-10.64Z"/><path d="M150.67,61.17v48H139.79V71.81H136v37.36H125.07V71.81h-2.16l1.76-10.64Z"/></svg>