<svg id="Layer_1" data-name="Layer 1" xmlns="http://www.w3.org/2000/svg" viewBox="0 0 226.77 168.57"><defs><style>.cls-1{fill:#fff;stroke:#fff;stroke-linecap:round;stroke-linejoin:round;stroke-width:10px;}</style></defs><path class="cls-1" d="M5,84.29l85,.42v-.84L5,84.29,123.34,5V46.74h90.88a7.58,7.58,0,0,1,7.55,7.55v58.82a7.58,7.58,0,0,1-7.55,7.55H123.34v42.91Z"/><path d="M76.53,61.17v56h-9.6V71.81H55.33l2.08-10.64Z"/><path d="M94.77,61.17V98.53h4.56V71.81H96.61l1.76-10.64h11V98.53h3.84a.35.35,0,0,0,.4-.4V71.81h-2.72l1.76-10.64h11v40.56a7.74,7.74,0,0,1-1.84,5.4,6.25,6.25,0,0,1-4.88,2H84.69V71.81H82.93l1.76-10.64Z"/><path d="M132.69,109.17V71.81h-1.76l.8-10.64h11.84v4.24l2.88-4.24H148c4.11,0,7.05.88,8.84,2.64s2.68,4.69,2.68,8.8v36.56H146.05V98.53h2.56V72.21a.35.35,0,0,0-.4-.4h-4.64v37.36Z"/><path d="M181.89,109.17V71.81h-15.2l1.76-10.64h24.32v48Zm-15.2,0v-33h10.88v33Z"/></svg>