<svg id="Layer_1" data-name="Layer 1" xmlns="http://www.w3.org/2000/svg" xmlns:xlink="http://www.w3.org/1999/xlink" viewBox="0 0 941.04 523.32"><defs><style>.cls-1{stroke:#4f77a9;stroke-miterlimit:10;stroke-width:4.2px;fill:url(#radial-gradient);}</style><radialGradient id="radial-gradient" cx="511.51" cy="261.66" r="353.26" gradientUnits="userSpaceOnUse"><stop offset="0" stop-color="#efefef"/><stop offset="0.99" stop-color="#fff"/></radialGradient></defs><path class="cls-1" d="M892.1,386.24c-16.73-4.11-28.76-17.76-37.33-32.52V38.83a37,37,0,0,0-37-37h-696a37,37,0,0,0-37,37V484.5a37,37,0,0,0,37,37h696a37,37,0,0,0,37-37V433.33C871,439.05,889.6,435.58,902,430c25.32-11.35,36.23-46.38,36.23-46.38S914.61,391.77,892.1,386.24Z"/></svg>