<svg id="Layer_1" data-name="Layer 1" xmlns="http://www.w3.org/2000/svg" viewBox="0 0 226.77 168.57"><defs><style>.cls-1{fill:#fff;stroke:#fff;stroke-linecap:round;stroke-linejoin:round;stroke-width:10px;}</style></defs><path class="cls-1" d="M5,84.29l85,.42v-.84L5,84.29,123.34,5V46.74h90.88a7.58,7.58,0,0,1,7.55,7.55v58.82a7.58,7.58,0,0,1-7.55,7.55H123.34v42.91Z"/><path d="M54.37,56.61H65.25v4.56H78.77V90a6.24,6.24,0,0,1-.4,1.76l-6.16,17.44H61.33l6.24-17.44A5.72,5.72,0,0,0,67.89,90V71.81H54.37Z"/><path d="M89.25,91.57V71.81H86l1.76-10.64h12.4v30.4Z"/><path d="M135.09,61.17v48H124.21V71.81h-3.84v37.36H109.49V71.81h-2.16l1.76-10.64Z"/><path d="M143.09,71.81l1.76-10.64h25.76v48H159.73V71.81h-3.6v29.92a7.21,7.21,0,0,1-2.08,5.4,7.44,7.44,0,0,1-5.44,2h-6.32V98.53h2.56a.35.35,0,0,0,.4-.4V71.81Z"/><path d="M177.81,109.17V98.53h4.08V71.81h-3.28l1.76-10.64h12.4v48Z"/></svg>